<svg xmlns="http://www.w3.org/2000/svg" aria-hidden="true" style="position:absolute;width:0;height:0;overflow:hidden">
  <defs>
    <symbol id="icon-logo" viewBox="0 0 102 32">
      <path
        d="m19.518 7.623.018.015.951.791.001 14.659a870 870 0 0 1-10.142 8.246c-.216-.021-5.818-4.629-8.663-6.969l-.079-.065C.875 23.7.339 23.259.14 23.099L.13 8.438 10.261.137c.33.047 6.655 5.318 9.257 7.487zm-4.375 2.995-.011-.018-.002-.003-.016-.025c-1.665-2.694-4.582-7.413-4.831-7.592l-5.879 9.367.013 6.502 1.182 1.94c.518.074 1.04.158 1.563.243 1.062.172 2.132.345 3.187.432l1.407-.211c1.086-.164 2.173-.329 3.262-.474l1.186-1.842-.001-6.608c-.141-.222-.537-.862-1.06-1.709zm1.5 2.496c.414.517.769 1.151 1.113 1.766q.149.266.296.523l.147.25-.197.322-.205.333q-.268.434-.54.866l-.626 1.015q-.002-.732-.009-1.467a87 87 0 0 1 .02-3.608zm-4.69-11.147c-.486-.427-1.083-.951-1.44-1.103l.011.481q.015.567.021 1.134a999 999 0 0 0 5.649 9.012c0-.092-.004-.236-.009-.413v-.029c-.023-.844-.064-2.378.152-2.604l.018-.017.016-.013.016-.013.19.083c.146.667.111 1.707.08 2.633l-.001.013-.002.057c-.013.386-.024.75-.021 1.056q.377.626.762 1.248c.445.721.891 1.444 1.303 2.181l-2.062 3.312.005 2.122v1.634l3.42.002-.007-14.105a416 416 0 0 0-7.595-6.237l-.079-.065-.072-.061c-.106-.09-.226-.196-.354-.308zM10.02.89l.049.042c.099.293.071.746.047 1.139-.009.144-.017.28-.019.396l-5.706 9.106q.003-.212.011-.443l.005-.141.011-.276c.029-.688.06-1.427-.016-2.006-.021-.162-.07-.221-.195-.316l-.132.025c-.199.31-.142 2.23-.111 3.276l.009.323.005.233a245 245 0 0 0-2.027 3.374l2.031 3.33-.009 1.904-.007 1.885-3.41-.005.013-14.093C2.601 6.891 4.696 5.2 6.789 3.51c1.08-.872 2.159-1.743 3.229-2.622zM7.831 21.555c-.642-.114-1.283-.229-1.92-.28l.493.792c1.315 2.11 2.633 4.226 3.89 6.369q.956-1.542 1.893-3.096.422-.683.842-1.369c.555-.905 1.11-1.811 1.683-2.703a46 46 0 0 0-1.234.202c-1.122.194-2.413.416-3.257.393-.793-.022-1.591-.164-2.39-.306zm-3.436-.509.966.14c.647 1.074 1.306 2.141 1.965 3.209l.003.005.018.029c.923 1.497 1.846 2.994 2.739 4.509q-.001.354.002.708.004.508.015 1.015l-1.925-1.576L.91 23.156c.816.011 1.632.009 2.448.006l1.033-.002c.019-.704.006-1.41.005-2.114zm11.569.032-.036.003-.669.103-4.729 7.696-.018 1.775.915-.743q.575-.464 1.151-.924a461 461 0 0 0 7.121-5.832l-3.491.004q.005-.234.015-.484l.001-.014c.021-.515.044-1.059-.059-1.528-.092-.069-.104-.067-.174-.059zm-11.982-3.1-.001.158-.505-.825a24 24 0 0 0-.694-1.167q-.16-.258-.316-.515c.295-.554.619-1.095.943-1.636l.248-.414q.123-.206.243-.413c.169.257.119 2.915.093 4.273-.004.218-.008.402-.009.538zm11.763 2.633.088-.157c.154-.276.309-.554.509-.8.018.254-.001.601-.047.809-.251.092-.352.125-.55.148m-11.325-.87c.238.293.412.63.597.957-.068-.008-.099-.011-.13-.017-.058-.011-.114-.034-.421-.132-.046-.295-.064-.554-.046-.809z" />
      <path
        d="m15.143 10.618-.675-1.092.664 1.074zm1.049.872c0-.095-.004-.246-.009-.431v.009c.005.181.009.328.009.422m-11.785-.462q-.011.286-.015.545.003-.213.011-.443zm-.428 1.221c-.001-.118-.007-.313-.014-.556l.009.323zM16.21 23.061l.014-.399-.001.014q-.009.196-.013.385M3.898 13.167q-.144.25-.293.497l.05-.085q.123-.206.243-.413zm.082 4.969c0-.166.008-.54.017-1.012l-.006.316c-.006.321-.011.569-.011.696m63.666 11.069v-.97h.985q.506 0 .869-.13.362-.116.608-.42c.246-.304.304-.483.42-.84l2.578-8.283h1.057l-2.693 8.587q-.232.738-.637 1.187-.405.464-.97.666c-.565.202-.806.203-1.289.203h-.927zm2.491-3.171v-.912h1.376v.912zm-.13 0-2.78-7.472h1.115l2.679 7.472zm-7.63.188v-7.66h.869v3.2h-.087q0-1.68.739-2.476.739-.811 2.317-.811h.246v.985h-.449q-1.245 0-1.897.652-.651.637-.652 1.882v4.228zm-3.756 0V15.651h1.086v10.571zm-1.115-9.687v-.883h2.201v.883zm-4.437 9.933q-.985 0-1.709-.333a3.4 3.4 0 0 1-1.187-.912 4 4 0 0 1-.695-1.289 5 5 0 0 1-.217-1.463v-.203q0-.738.217-1.448.231-.71.695-1.274c.464-.564.695-.676 1.159-.898q.71-.348 1.651-.348 1.202 0 1.998.536.811.536 1.216 1.376.405.825.405 1.781v.565h-6.849v-.84h6.096l-.275.42q0-.855-.304-1.491a2.24 2.24 0 0 0-.869-1.014q-.565-.377-1.419-.377-.898 0-1.492.42c-.594.42-.695.652-.898 1.115q-.29.695-.29 1.578 0 .868.29 1.593.304.71.912 1.13.622.42 1.564.42 1 0 1.622-.449.623-.463.767-1.086h1.014a2.9 2.9 0 0 1-.608 1.332q-.464.55-1.173.854c-.709.304-1.014.304-1.622.304zm-19.732.62q-.984 0-1.709-.333a3.4 3.4 0 0 1-1.187-.912 4 4 0 0 1-.695-1.289 5 5 0 0 1-.217-1.463v-.203q0-.738.217-1.448.231-.71.695-1.274c.464-.564.695-.676 1.158-.898q.71-.348 1.651-.348 1.202 0 1.998.536.811.536 1.216 1.376.406.825.406 1.781v.565h-6.849v-.84h6.096l-.275.42q0-.855-.304-1.492a2.24 2.24 0 0 0-.869-1.014q-.566-.377-1.419-.377-.898 0-1.491.42c-.593.42-.695.652-.898 1.115q-.29.695-.29 1.578 0 .868.29 1.593.305.709.912 1.13.622.42 1.564.42 1 0 1.622-.449.623-.463.767-1.086h1.014a2.9 2.9 0 0 1-.608 1.332q-.463.55-1.173.854c-.71.304-1.014.304-1.622.304zm-8.944 2.693v-.97h.869q.564 0 .854-.333.304-.318.304-.927v-8.37h1.043v8.167q0 .898-.246 1.434-.232.536-.753.767c-.521.231-.811.232-1.39.232zm.782-9.731v-.869h2.288v.869zm1.448-2.418q-.391 0-.594-.203-.188-.217-.188-.536c0-.319.063-.386.188-.521q.203-.217.594-.217c.391 0 .454.072.579.217q.189.203.188.521c-.001.318-.063.391-.188.536q-.188.203-.579.203m70.005-2.882q-.984 0-1.709-.333a3.4 3.4 0 0 1-1.188-.912 4 4 0 0 1-.695-1.289 5 5 0 0 1-.217-1.463v-.203q0-.738.217-1.448.231-.71.695-1.274c.464-.564.695-.676 1.159-.898q.71-.348 1.651-.348 1.202 0 1.998.536.811.536 1.217 1.376.406.825.405 1.781v.565h-6.849V10h6.096l-.274.42q0-.855-.305-1.492a2.24 2.24 0 0 0-.869-1.014q-.564-.377-1.419-.377-.898 0-1.492.42c-.594.42-.695.652-.898 1.115q-.29.695-.29 1.578 0 .869.29 1.593.305.71.912 1.13.622.42 1.564.42 1 0 1.622-.449.623-.463.767-1.086h1.014q-.145.768-.609 1.332-.462.55-1.172.854c-.71.304-1.014.304-1.622.304zm-9.812 0q-.84 0-1.535-.304a3.8 3.8 0 0 1-1.187-.869 4.3 4.3 0 0 1-.767-1.274 4.5 4.5 0 0 1-.261-1.535v-.203q0-.781.261-1.492.26-.724.739-1.274a3.54 3.54 0 0 1 2.722-1.216q.97 0 1.709.42c.739.42.888.685 1.188 1.216q.449.781.478 1.926l-.478-.898V3.933h1.086v10.571h-.869v-3.403h.348q-.028 1.202-.507 2.027a3.04 3.04 0 0 1-1.231 1.216 3.5 3.5 0 0 1-1.694.405zm.145-.956q.781 0 1.405-.348a2.5 2.5 0 0 0 .999-.985q.362-.651.362-1.492v-.695q0-.811-.362-1.419a2.53 2.53 0 0 0-.999-.97 2.86 2.86 0 0 0-1.419-.348q-.855 0-1.492.42-.623.405-.97 1.115a3.7 3.7 0 0 0-.333 1.593q0 .912.348 1.622c.348.71.56.845.985 1.115q.637.391 1.477.391zm-6.725.71v-2.302h-.174V9.48q0-.855-.449-1.303-.449-.463-1.39-.463-.435 0-.883.014-.435.015-.84.043-.391.015-.695.043v-.956l.652-.058q.333-.029.681-.029.362-.015.695-.014 1.173 0 1.882.29.724.29 1.057.912.333.608.333 1.622v4.924h-.869zm-2.592.203q-.81 0-1.434-.29c-.624-.29-.739-.473-.97-.84q-.333-.55-.333-1.332 0-.768.348-1.303.362-.535 1.028-.811.68-.29 1.636-.29h2.244v.825h-2.317q-.912 0-1.405.449-.478.435-.478 1.144 0 .724.507 1.159.507.42 1.376.42.536 0 1.028-.188.492-.202.825-.666.333-.478.362-1.303l.319.449q-.059.854-.405 1.434-.347.565-.941.854c-.594.289-.859.29-1.39.29zm-15.855-.203V6.829h.869v3.229h-.174q0-1.057.29-1.825.304-.768.898-1.187.594-.435 1.506-.434h.043q.912 0 1.506.42c.594.42.69.676.883 1.187q.29.768.29 1.839h-.348q0-1.057.29-1.825.304-.768.898-1.187.609-.435 1.52-.434h.043q.912 0 1.506.42.608.42.898 1.187.304.768.304 1.839v4.446h-1.086V9.812q0-1.014-.492-1.607c-.492-.593-.801-.594-1.419-.594q-.956 0-1.52.623-.55.608-.55 1.651v4.619h-1.086V9.812q0-1.014-.492-1.607c-.492-.593-.801-.594-1.419-.594q-.956 0-1.52.623-.55.608-.55 1.651v4.619h-1.086zm-6.611.246q-.84 0-1.535-.304a3.8 3.8 0 0 1-1.188-.869 4.3 4.3 0 0 1-.767-1.274 4.5 4.5 0 0 1-.261-1.535v-.203q0-.781.261-1.492.26-.724.739-1.274a3.54 3.54 0 0 1 2.722-1.216q.97 0 1.709.42c.739.42.888.685 1.187 1.216q.449.781.478 1.926l-.478-.898V3.933h1.086v10.571h-.869v-3.403h.348q-.029 1.202-.507 2.027a3.04 3.04 0 0 1-1.231 1.216 3.5 3.5 0 0 1-1.694.405zm.144-.956q.782 0 1.405-.348a2.5 2.5 0 0 0 .999-.985q.362-.651.362-1.492v-.695q0-.811-.362-1.419a2.53 2.53 0 0 0-.999-.97 2.86 2.86 0 0 0-1.419-.348q-.855 0-1.492.42-.623.405-.97 1.115a3.7 3.7 0 0 0-.333 1.593q0 .912.348 1.622c.348.71.56.845.985 1.115q.637.391 1.477.391zm-12.334.71v-7.66h.869v3.215h-.174q0-1.071.319-1.839c.319-.768.531-.907.956-1.187q.638-.42 1.607-.42h.043q1.448 0 2.158.912.71.898.71 2.534v4.446h-1.072V9.828q0-1-.55-1.607c-.55-.607-.879-.608-1.535-.608q-1.014 0-1.636.637-.609.622-.608 1.651v4.605h-1.086zm-3.437 0v-2.302h-.174V9.48q0-.855-.449-1.303-.449-.463-1.39-.463-.435 0-.883.014-.435.015-.84.043-.391.015-.695.043v-.956l.652-.058q.333-.029.681-.029.362-.015.695-.014 1.173 0 1.883.29.724.29 1.057.912.333.608.333 1.622v4.924h-.869zm-2.593.203q-.81 0-1.434-.29c-.624-.29-.739-.473-.97-.84q-.333-.55-.333-1.332 0-.768.348-1.303.362-.535 1.028-.811.68-.29 1.636-.29h2.245v.825h-2.317q-.912 0-1.405.449-.478.435-.478 1.144 0 .724.507 1.159.507.42 1.376.42.536 0 1.028-.188.492-.202.825-.666.333-.478.362-1.303l.319.449q-.059.854-.405 1.434-.347.565-.941.854c-.594.289-.859.29-1.39.29zm-11.117-.203V3.933h1.086v5.981l-.319.246q0-1.071.304-1.868.318-.796.941-1.231.638-.449 1.593-.449h.058q1.39 0 2.1.912.724.912.724 2.534v4.446h-1.072V9.827q0-1.028-.565-1.622c-.565-.594-.883-.594-1.52-.594q-1.028 0-1.636.666-.608.651-.608 1.723v4.504zm15.077 11.491 1.519-6.885h1.412l1.761 6.885h-.874l-1.761-6.844h.323l-1.533 6.844zm-.578 0v-.82h1.224v.82zm-.242 0-2.057-7.113h.968l2.03 7.113zm4.868 0v-.82h1.197v.82zm.524 0 1.775-7.113h.928l-1.815 7.113z" />
    </symbol>
    <symbol id="icon-favicon" viewBox="0 0 21 32">
      <path
        d="m19.429 7.579.017.014.947.788.001 14.603a854 854 0 0 1-10.103 8.214c-.215-.021-5.796-4.611-8.63-6.943l-.079-.065a335 335 0 0 0-1.458-1.196L.114 8.388 10.207.118c.329.047 6.63 5.298 9.222 7.459zm-4.359 2.984-.011-.018-.002-.003-.016-.025c-1.659-2.684-4.564-7.385-4.813-7.563l-5.856 9.331.013 6.478 1.178 1.932a75 75 0 0 1 1.557.242c1.058.171 2.124.343 3.175.43l1.402-.21c1.082-.164 2.165-.327 3.249-.472l1.181-1.835-.001-6.583c-.141-.221-.535-.858-1.056-1.703zm1.494 2.486c.412.515.766 1.147 1.109 1.759q.148.265.295.521.073.127.147.249l-.197.321-.204.332q-.267.432-.538.863l-.623 1.011q-.002-.73-.009-1.461c-.01-1.199-.02-2.4.02-3.595M11.892 1.944c-.484-.425-1.079-.947-1.435-1.099l.011.479q.015.564.021 1.129a1029 1029 0 0 0 5.627 8.978c0-.092-.004-.235-.009-.411v-.029c-.023-.84-.063-2.369.151-2.594l.018-.017.016-.013.016-.013.189.083c.146.664.111 1.7.079 2.623l-.001.013-.002.056c-.013.385-.024.747-.021 1.052q.375.624.759 1.243c.443.719.887 1.438 1.299 2.173l-2.055 3.299.005 2.114v1.628l3.407.002-.007-14.051a409 409 0 0 0-7.566-6.213l-.079-.064-.072-.061c-.106-.09-.225-.195-.353-.307zM9.966.872l.049.042c.098.292.071.744.047 1.134a8 8 0 0 0-.018.395L4.36 11.514q.003-.21.011-.442l.005-.141.011-.275c.029-.685.06-1.422-.016-1.998-.021-.162-.07-.22-.195-.314l-.131.025c-.199.309-.142 2.222-.111 3.264l.009.322.005.232a243 243 0 0 0-2.019 3.361l2.023 3.318-.008 1.897-.007 1.878-3.397-.005.013-14.039c2.024-1.746 4.111-3.43 6.196-5.113A457 457 0 0 0 9.966.872M7.785 21.458c-.639-.114-1.278-.228-1.913-.279l.491.789c1.31 2.102 2.623 4.21 3.876 6.344a296 296 0 0 0 1.886-3.084q.421-.681.839-1.364c.552-.902 1.105-1.804 1.676-2.693-.356.05-.779.123-1.23.201-1.118.193-2.404.415-3.245.392-.79-.022-1.585-.164-2.381-.305zm-3.422-.507.962.139c.645 1.07 1.301 2.133 1.957 3.197l.003.005.018.029c.92 1.491 1.839 2.982 2.729 4.492q-.001.352.002.706.005.505.015 1.011l-1.918-1.57-7.24-5.906c.812.011 1.626.009 2.439.006l1.029-.002c.019-.701.006-1.404.005-2.106zm11.525.032-.036.003-.666.102-4.711 7.666-.018 1.768.912-.74q.572-.462 1.147-.92a453 453 0 0 0 7.093-5.81l-3.478.004q.004-.234.015-.482l.001-.014c.021-.513.044-1.055-.059-1.523-.091-.069-.103-.067-.174-.059l-.027.003zM3.952 17.895l-.001.158-.503-.822a24 24 0 0 0-.691-1.162l-.315-.513c.294-.552.617-1.091.939-1.63l.247-.412.242-.411c.169.256.118 2.904.093 4.257-.004.217-.008.401-.009.536zm11.718 2.623.087-.156c.154-.276.308-.552.507-.797.018.253-.001.598-.046.806-.25.092-.351.124-.548.148zm-11.282-.867c.237.292.41.628.594.953-.068-.008-.099-.011-.129-.016-.058-.011-.113-.034-.419-.131-.046-.294-.064-.552-.046-.806" />
      <path
        d="m15.07 10.562-.672-1.088.661 1.07zm1.045.87c0-.095-.004-.245-.009-.43v.009c.005.18.009.327.009.42zm-11.741-.461a22 22 0 0 0-.015.543q.003-.21.011-.442zm-.426 1.217c-.001-.117-.007-.312-.014-.554l.009.322zm12.186 10.771.014-.398-.001.014q-.009.196-.013.383zM3.868 13.101l-.292.496.05-.084.242-.411zm.082 4.951c0-.166.008-.538.017-1.008l-.006.315c-.006.32-.011.567-.011.694z" />
    </symbol>
    <symbol id="icon-burger-menu" viewBox="0 0 32 32">
      <path d="M5.333 8h21.333v2.667H5.333zm0 6.667h21.333v2.667H5.333zm0 6.666h21.333V24H5.333z" />
    </symbol>
    <symbol id="icon-close-btn" viewBox="0 0 32 32">
      <path
        d="m21.589 8.459-5.657 5.656-5.656-5.656-1.885 1.885L14.047 16l-5.656 5.656 1.885 1.885 5.656-5.656 5.657 5.656 1.885-1.885L17.818 16l5.656-5.656z" />
    </symbol>
    <symbol id="icon-star-black" viewBox="0 0 32 32">
      <path
        d="M14.513 1.037a1.584 1.584 0 0 1 2.973 0l3.246 8.164c.232.583.756.982 1.358 1.032l8.426.707c1.427.12 2.006 1.983.919 2.958l-6.419 5.752a1.73 1.73 0 0 0-.519 1.67l1.961 8.6c.332 1.457-1.183 2.609-2.405 1.828l-7.213-4.609a1.55 1.55 0 0 0-1.679 0l-7.214 4.609c-1.222.781-2.738-.371-2.405-1.828l1.961-8.6a1.73 1.73 0 0 0-.519-1.67l-6.42-5.752c-1.088-.975-.509-2.838.919-2.958l8.426-.707a1.62 1.62 0 0 0 1.358-1.032z" />
    </symbol>
    <symbol id="icon-star-outline" viewBox="0 0 32 32">
      <path stroke-width="2.667"
        d="M16 1.333q.076.001.131.038c.031.02.078.062.116.159l3.246 8.164a2.95 2.95 0 0 0 2.486 1.867l8.426.707a.2.2 0 0 1 .135.053.37.37 0 0 1 .105.172c.052.168.008.314-.1.411l-6.419 5.751a3.07 3.07 0 0 0-.93 2.96l1.962 8.6c.043.187-.028.32-.128.396a.26.26 0 0 1-.13.055c-.024.002-.065-.001-.13-.043l-7.213-4.608a2.88 2.88 0 0 0-3.115 0l-7.213 4.608c-.066.042-.106.045-.13.043a.25.25 0 0 1-.13-.055c-.1-.076-.17-.209-.128-.396l1.962-8.6a3.07 3.07 0 0 0-.93-2.96l-6.419-5.751c-.108-.097-.152-.244-.1-.411a.4.4 0 0 1 .105-.172.22.22 0 0 1 .135-.053l8.426-.707a2.95 2.95 0 0 0 2.486-1.867l3.246-8.164a.3.3 0 0 1 .116-.159.24.24 0 0 1 .131-.038z" />
    </symbol>
    <symbol id="icon-email" viewBox="0 0 32 32">
      <path
        d="M26.667 5.333H5.334A2.67 2.67 0 0 0 2.667 8v16a2.67 2.67 0 0 0 2.667 2.667h21.333A2.67 2.67 0 0 0 29.334 24V8a2.67 2.67 0 0 0-2.667-2.667m0 2.667v.681L16 16.978 5.333 8.682v-.683h21.333zM5.333 24V12.059l9.848 7.66a1.33 1.33 0 0 0 1.638 0l9.848-7.66L26.67 24z" />
    </symbol>
    <symbol id="icon-phone" viewBox="0 0 32 32">
      <path
        d="M23.61 16.391a1.34 1.34 0 0 0-.942-.391 1.33 1.33 0 0 0-.942.391l-2.125 2.125c-.985-.293-2.824-.96-3.989-2.125s-1.832-3.004-2.125-3.989l2.125-2.125a1.34 1.34 0 0 0 .391-.942 1.33 1.33 0 0 0-.391-.942L10.279 3.06a1.34 1.34 0 0 0-.942-.391 1.33 1.33 0 0 0-.942.391L4.779 6.676a2.66 2.66 0 0 0-.781 1.913c.031 1.899.533 8.493 5.731 13.691s11.792 5.699 13.692 5.731h.037c.704 0 1.369-.277 1.873-.781l3.616-3.616a1.34 1.34 0 0 0 .391-.942 1.33 1.33 0 0 0-.391-.942l-5.333-5.335zm-.17 8.949c-1.664-.028-7.357-.475-11.831-4.949C7.121 15.903 6.686 10.19 6.66 8.559l2.673-2.673 3.448 3.448-1.724 1.724a1.33 1.33 0 0 0-.362 1.216c.032.153.815 3.789 3.028 6.003s5.849 2.996 6.003 3.028a1.32 1.32 0 0 0 1.216-.361l1.725-1.724 3.448 3.448-2.675 2.673z" />
    </symbol>
    <symbol id="icon-map" viewBox="0 0 32 32">
      <path
        d="M16 18.667c2.941 0 5.333-2.392 5.333-5.333S18.941 8.001 16 8.001s-5.333 2.392-5.333 5.333 2.392 5.333 5.333 5.333m0-8c1.471 0 2.667 1.196 2.667 2.667S17.471 16.001 16 16.001s-2.667-1.196-2.667-2.667 1.196-2.667 2.667-2.667" />
      <path
        d="M15.227 29.085a1.33 1.33 0 0 0 1.546 0c.405-.287 9.932-7.165 9.893-15.752 0-5.881-4.785-10.667-10.667-10.667S5.332 7.451 5.332 13.326c-.039 8.593 9.488 15.472 9.893 15.759zM16 5.333c4.412 0 8 3.588 8 8.007.028 5.917-5.851 11.231-8 12.973-2.148-1.744-8.028-7.059-8-12.98 0-4.412 3.588-8 8-8" />
    </symbol>
    <symbol id="icon-facebook" viewBox="0 0 32 32">
      <path
        d="M29.333 16.405C29.333 8.996 23.364 2.99 16 2.99S2.667 8.996 2.667 16.405c0 6.696 4.876 12.245 11.25 13.252v-9.374h-3.385v-3.878h3.385V13.45c0-3.362 1.991-5.219 5.036-5.219 1.459 0 2.985.262 2.985.262v3.301h-1.681c-1.656 0-2.173 1.034-2.173 2.095v2.516h3.698l-.591 3.878h-3.107v9.374c6.374-1.006 11.25-6.556 11.25-13.252z" />
    </symbol>
    <symbol id="icon-instagram" viewBox="0 0 32 32">
      <path
        d="M15.998 6.161c3.206 0 3.585.014 4.846.071 1.172.052 1.804.248 2.226.412.558.216.961.478 1.378.895.422.422.679.82.9 1.378.164.422.361 1.059.412 2.226.056 1.266.071 1.645.071 4.847s-.014 3.585-.071 4.847c-.052 1.172-.248 1.804-.412 2.227a3.7 3.7 0 0 1-.895 1.377c-.422.422-.82.679-1.378.9-.422.164-1.06.361-2.226.412-1.266.056-1.645.071-4.847.071s-3.585-.014-4.847-.071c-1.172-.052-1.804-.248-2.226-.412a3.7 3.7 0 0 1-1.378-.895 3.8 3.8 0 0 1-.9-1.378c-.164-.422-.361-1.06-.412-2.226-.056-1.266-.071-1.645-.071-4.847s.014-3.585.071-4.847c.052-1.172.248-1.804.412-2.226.216-.558.478-.961.895-1.378.422-.422.82-.679 1.378-.9.422-.164 1.059-.361 2.226-.412 1.261-.056 1.641-.071 4.847-.071zm0-2.16c-3.258 0-3.665.014-4.945.071-1.275.056-2.151.262-2.91.558a5.85 5.85 0 0 0-2.127 1.387A5.9 5.9 0 0 0 4.629 8.14c-.295.764-.502 1.636-.558 2.91C4.015 12.335 4 12.742 4 15.999s.014 3.665.071 4.945c.056 1.275.262 2.151.558 2.91a5.9 5.9 0 0 0 1.387 2.127 5.9 5.9 0 0 0 2.123 1.383c.764.295 1.636.502 2.91.558 1.279.056 1.687.071 4.945.071s3.666-.014 4.945-.071c1.275-.056 2.151-.262 2.91-.558.787-.305 1.458-.717 2.123-1.383s1.078-1.336 1.383-2.123c.295-.764.502-1.635.558-2.91.056-1.279.071-1.687.071-4.945s-.014-3.665-.071-4.945c-.056-1.275-.262-2.151-.558-2.91a5.6 5.6 0 0 0-1.373-2.133 5.9 5.9 0 0 0-2.123-1.383c-.764-.295-1.635-.502-2.91-.558-1.284-.061-1.692-.075-4.949-.075L15.999 4z" />
      <path
        d="M15.998 9.836a6.164 6.164 0 1 0 6.163 6.163 6.164 6.164 0 0 0-6.163-6.163m0 10.161a3.998 3.998 0 1 1 0-7.996 3.998 3.998 0 0 1 0 7.996m7.845-10.405a1.439 1.439 0 1 1-2.877 0 1.439 1.439 0 0 1 2.877 0" />
    </symbol>
    <symbol id="icon-x" viewBox="0 0 32 32">
      <path
        d="M22.901 5.657h3.68l-8.04 9.037L28 26.991h-7.406l-5.801-7.458-6.637 7.458H4.474l8.6-9.666L4 5.657h7.594l5.243 6.817zM21.61 24.824h2.039L10.486 7.709H8.298z" />
    </symbol>
    <symbol id="icon-linkedIn" viewBox="0 0 32 32">
      <path
        d="M25.75 4H6.25A2.257 2.257 0 0 0 4 6.25v19.5A2.257 2.257 0 0 0 6.25 28h19.5A2.257 2.257 0 0 0 28 25.75V6.25A2.257 2.257 0 0 0 25.75 4M13 23.5h-3V13h3zm-1.5-12a1.5 1.5 0 1 1-.001-2.999A1.5 1.5 0 0 1 11.5 11.5m12 12h-3v-6a1.5 1.5 0 1 0-3 0v6h-3V13h3v1.861c.619-.848 1.565-1.861 2.625-1.861 1.866 0 3.375 1.679 3.375 3.75z" />
    </symbol>
    <symbol id="icon-youtube" viewBox="0 0 32 32">
      <path
        d="M28.791 9.604a3.35 3.35 0 0 0-2.35-2.354C24.353 6.677 16 6.667 16 6.667s-8.352-.009-10.441.539a3.42 3.42 0 0 0-2.354 2.371c-.551 2.088-.556 6.419-.556 6.419s-.005 4.352.541 6.419a3.34 3.34 0 0 0 2.351 2.353c2.109.573 10.44.583 10.44.583s8.353.009 10.441-.537a3.36 3.36 0 0 0 2.356-2.35c.552-2.087.556-6.416.556-6.416s.027-4.353-.543-6.441zM13.328 20.007l.007-8 6.943 4.007z" />
    </symbol>
  </defs>
</svg>