<svg width="24" height="24" viewBox="0 0 24 24" fill="none" xmlns="http://www.w3.org/2000/svg">
<path d="M21.88 2.1499L20.68 2.5499C18.6234 3.26445 16.4273 3.48372 14.27 3.1899C12.0031 2.83811 9.68292 3.15072 7.59 4.0899C6.48048 4.56235 5.50675 5.30482 4.75747 6.24971C4.00819 7.19461 3.50716 8.31191 3.3 9.4999C3.08926 10.6424 3.11082 11.8155 3.36338 12.9495C3.61594 14.0834 4.09433 15.1549 4.77 16.0999C4.71 16.3099 4.65 16.5199 4.6 16.7299C4.19384 18.4569 3.99245 20.2258 4 21.9999H6C6.094 20.5477 6.29116 19.1041 6.59 17.6799C7.97743 18.4291 9.53335 18.8112 11.11 18.7899C12.5805 18.7889 14.0358 18.4931 15.39 17.9199C23 14.6699 22 3.8599 22 3.4099L21.88 2.1499ZM14.61 16.0799C12 17.1899 8.88 16.9999 7.13 15.6299C7.42576 14.6409 7.83164 13.6883 8.34 12.7899C8.73519 12.1433 9.20142 11.5429 9.73 10.9999C10.2701 10.4511 10.8784 9.97386 11.54 9.5799C12.9071 8.76245 14.4232 8.22535 16 7.9999V6.9999C14.1858 6.9371 12.3827 7.30731 10.74 8.0799C9.06042 8.89945 7.63602 10.1614 6.62 11.7299C6.24317 12.329 5.90901 12.9539 5.62 13.5999C5.15652 12.4143 5.02514 11.1247 5.24 9.8699C5.38077 8.99144 5.7429 8.16328 6.29225 7.46347C6.8416 6.76366 7.56008 6.21524 8.38 5.8699C9.57561 5.31106 10.8802 5.02418 12.2 5.0299C12.82 5.0299 13.43 5.0899 14.07 5.1399C16.0743 5.3985 18.1093 5.2798 20.07 4.7899C20 7.5499 19.5 13.9999 14.61 16.0799Z" fill="black"/>
</svg>
