<svg xmlns="http://www.w3.org/2000/svg" fill="none" viewBox="0 0 79 25">
  <path fill="#000" fill-rule="evenodd" d="m15.096 5.896.013.011.138.115.11.092.488.405v11.338a666.897 666.897 0 0 1-7.843 6.378c-.167-.017-4.5-3.58-6.7-5.39l-.062-.051c-.564-.464-.979-.805-1.132-.929L.1 6.525 7.936.106c.255.036 5.147 4.113 7.16 5.791Zm-3.384 2.316-.009-.014-.001-.002-.012-.02c-1.288-2.084-3.544-5.734-3.737-5.872L3.406 9.549l.01 5.029.915 1.5c.4.057.804.122 1.209.188.822.132 1.649.266 2.465.334l.493-.074.595-.09c.84-.127 1.68-.254 2.523-.366l.917-1.425v-5.11c-.11-.172-.416-.667-.82-1.323Zm1.16 1.93c.32.4.595.891.861 1.366.077.137.153.273.23.405l.113.193-.152.25-.16.257a52.9 52.9 0 0 1-.417.67l-.484.785c0-.378-.003-.756-.006-1.134a67.77 67.77 0 0 1 .015-2.791Zm-3.628-8.62C8.868 1.19 8.407.785 8.13.667l.009.372c.006.292.013.585.016.877a788.19 788.19 0 0 0 4.369 6.97c0-.071-.004-.183-.008-.32v-.02c-.017-.652-.049-1.84.118-2.014a.127.127 0 0 1 .014-.013l.012-.01.013-.01.147.064c.113.515.086 1.32.061 2.036v.01l-.002.044c-.01.299-.018.58-.016.817.193.323.391.644.59.966.344.557.688 1.116 1.008 1.686l-1.595 2.561.004 1.642v1.264l2.645.001-.006-10.909a318.162 318.162 0 0 0-5.874-4.823l-.061-.05-.056-.047c-.082-.07-.175-.152-.274-.239ZM7.75.688l.038.032c.077.227.055.577.037.88a6.704 6.704 0 0 0-.014.307L3.397 8.951c0-.109.004-.224.008-.343L3.41 8.5l.01-.213c.022-.533.046-1.104-.013-1.552-.017-.125-.054-.17-.151-.244l-.103.02c-.154.24-.11 1.725-.086 2.534l.008.25.003.18c-.53.866-1.052 1.736-1.567 2.61l1.57 2.575-.006 1.473-.005 1.458-2.638-.004.01-10.9c1.572-1.355 3.192-2.663 4.81-3.97C6.088 2.042 6.923 1.368 7.75.69ZM6.056 16.672a15.633 15.633 0 0 0-1.485-.217l.381.612a218.768 218.768 0 0 1 3.01 4.926c.492-.795.98-1.593 1.463-2.395.219-.352.435-.705.652-1.059.429-.7.858-1.4 1.302-2.09-.277.038-.605.095-.955.155-.868.15-1.867.323-2.52.305-.612-.017-1.23-.127-1.848-.237ZM3.4 16.278l.747.108c.501.83 1.01 1.656 1.52 2.482l.002.003.014.023A201.888 201.888 0 0 1 7.8 22.38a49.041 49.041 0 0 0 .014 1.333l-1.49-1.219L.703 17.91c.63.009 1.262.007 1.893.005l.8-.002c.014-.544.004-1.09.003-1.635Zm8.948.025-.028.002-.517.08-3.657 5.952-.014 1.373a184.1 184.1 0 0 1 1.598-1.29 354.726 354.726 0 0 0 5.507-4.51l-2.7.003c.002-.12.007-.246.012-.374v-.011c.017-.398.035-.82-.045-1.182-.071-.054-.08-.053-.135-.046l-.02.003ZM3.08 13.905l-.001.123-.391-.639a18.401 18.401 0 0 0-.537-.902 43.21 43.21 0 0 1-.244-.399c.228-.428.478-.847.729-1.265l.191-.32.188-.32c.13.2.092 2.255.072 3.306l-.007.416Zm9.098 2.037.067-.122c.12-.213.24-.428.394-.619.014.197 0 .465-.036.626a1.595 1.595 0 0 1-.425.115Zm-8.76-.673c.185.226.32.487.462.74-.052-.006-.076-.008-.1-.013-.045-.009-.088-.027-.325-.102a2.73 2.73 0 0 1-.036-.625Z" clip-rule="evenodd"/>
  <path stroke="#000" stroke-width=".2" d="m11.703 8.198.01.014c.404.656.71 1.15.82 1.322v5.111l-.917 1.425c-.842.112-1.683.24-2.523.366l-.595.09-.493.074c-.816-.068-1.643-.202-2.465-.334a60.371 60.371 0 0 0-1.21-.188l-.914-1.5-.01-5.03 4.547-7.244m3.75 5.894-.001-.002-.012-.02c-1.288-2.084-3.544-5.734-3.737-5.872m3.75 5.894-1.102-1.781C9.411 4.5 8.098 2.408 7.953 2.304m4.57 6.583a797.465 797.465 0 0 1-4.368-6.97c-.003-.292-.01-.585-.016-.877L8.13.668c.277.118.738.523 1.114.853.1.087.192.169.274.239l.056.047.061.05a318.162 318.162 0 0 1 5.874 4.823l.006 10.91-2.646-.002v-1.264l-.003-1.642 1.595-2.56c-.32-.571-.664-1.13-1.008-1.688a80.006 80.006 0 0 1-.59-.965m-.34-.582c0-.071-.003-.183-.007-.32m.008.32v-.003c0-.072-.004-.182-.008-.316m0 0v-.023c-.017-.652-.049-1.84.118-2.014a.127.127 0 0 1 .014-.013l.012-.01.013-.01.147.064c.113.515.086 1.32.061 2.036m0 0v.01l-.002.044c-.01.299-.018.58-.016.817m.018-.87-.004.139c-.009.267-.016.517-.014.731M3.78 15.996c.024.005.048.007.1.013-.143-.253-.277-.514-.461-.74-.014.196 0 .397.036.625m.325.102c-.045-.009-.088-.027-.325-.102m.325.102c-.044-.008-.086-.026-.317-.099-.003 0-.005-.002-.008-.003m11.64-9.998.014.011.138.115.11.092.488.405v11.338a666.897 666.897 0 0 1-7.843 6.378c-.167-.017-4.5-3.58-6.7-5.39l-.062-.051c-.564-.464-.979-.805-1.132-.929L.1 6.525 7.936.106c.255.036 5.147 4.113 7.16 5.791Zm-2.223 4.247c.32.4.595.89.861 1.365.077.137.153.273.23.405l.113.193-.152.25-.16.257a52.9 52.9 0 0 1-.417.67l-.484.785c0-.378-.003-.756-.006-1.134a67.77 67.77 0 0 1 .015-2.791ZM7.749.689l.038.032c.077.227.055.577.037.88a6.704 6.704 0 0 0-.014.307L3.397 8.951c0-.109.004-.224.008-.343L3.41 8.5l.01-.213c.022-.533.046-1.104-.013-1.552-.017-.125-.054-.17-.151-.244l-.103.02c-.154.24-.11 1.725-.086 2.534l.008.25.003.18c-.53.866-1.052 1.736-1.567 2.61l1.57 2.575-.006 1.473-.005 1.458-2.638-.004.01-10.9c1.572-1.355 3.192-2.663 4.81-3.97C6.088 2.042 6.923 1.368 7.75.69ZM6.056 16.672a15.633 15.633 0 0 0-1.485-.217l.381.612a218.768 218.768 0 0 1 3.01 4.926c.492-.795.98-1.593 1.463-2.395.219-.352.435-.705.652-1.059.429-.7.858-1.4 1.302-2.09-.277.038-.605.095-.955.155-.868.15-1.867.323-2.52.305-.612-.017-1.23-.127-1.848-.237ZM3.4 16.278l.747.108c.501.83 1.01 1.656 1.52 2.482l.002.003.014.023A201.888 201.888 0 0 1 7.8 22.38a49.041 49.041 0 0 0 .014 1.333l-1.49-1.219L.703 17.91c.63.009 1.262.007 1.893.005l.8-.002c.014-.544.004-1.09.003-1.635Zm8.948.025-.028.002-.517.08-3.657 5.952-.014 1.373a184.1 184.1 0 0 1 1.598-1.29 354.726 354.726 0 0 0 5.507-4.51l-2.7.003c.002-.12.007-.246.012-.374v-.011c.017-.398.035-.82-.045-1.182-.071-.054-.08-.053-.135-.046l-.02.003ZM3.08 13.905l-.001.123-.391-.639a18.401 18.401 0 0 0-.537-.902 43.21 43.21 0 0 1-.244-.399c.228-.428.478-.847.729-1.265l.191-.32.188-.32c.13.2.092 2.255.072 3.306l-.007.416Zm9.098 2.037.067-.122c.12-.213.24-.428.394-.619.014.197 0 .465-.036.626a1.595 1.595 0 0 1-.425.115Z"/>
  <path fill="#000" fill-rule="evenodd" stroke="#000" stroke-width=".2" d="m11.712 8.212-.522-.844.513.83.009.014Z" clip-rule="evenodd"/>
  <path fill="#000" fill-rule="evenodd" d="M12.523 8.887c0-.074-.003-.19-.007-.334v.008c.004.14.007.254.007.326Z" clip-rule="evenodd"/>
  <path stroke="#000" stroke-width=".2" d="M12.516 8.56v-.007a17.406 17.406 0 0 1 0 .008Zm0 0v.008c.004.134.007.244.007.316"/>
  <path fill="#000" fill-rule="evenodd" stroke="#000" stroke-width=".2" d="M3.408 8.53a15.111 15.111 0 0 0-.003.078l.003-.078Zm-.33.944c-.001-.09-.006-.242-.012-.43l.007.25c.002.073.004.134.004.18Z" clip-rule="evenodd"/>
  <path fill="#000" fill-rule="evenodd" d="M12.538 17.836c.002-.1.006-.203.01-.308v.01c-.004.102-.008.201-.01.298Z" clip-rule="evenodd"/>
  <path stroke="#000" stroke-width=".2" d="M12.548 17.539v-.011c-.004.105-.008.208-.01.308.002-.097.006-.196.01-.297Zm0 0-.008.193a8.142 8.142 0 0 0-.002.097"/>
  <path fill="#000" fill-rule="evenodd" stroke="#000" stroke-width=".2" d="M3.015 10.184c-.075.128-.15.256-.227.384l.04-.065.187-.32Zm.063 3.843c0-.128.007-.417.013-.782l-.004.244c-.005.248-.009.44-.009.538Z" clip-rule="evenodd"/>
  <path fill="#000" d="M52.32 22.588v-.75h.761c.262 0 .486-.034.672-.1a.978.978 0 0 0 .47-.326c.128-.156.236-.373.326-.65l1.993-6.406h.818l-2.083 6.642c-.12.38-.284.687-.493.918-.21.24-.46.411-.75.516a2.939 2.939 0 0 1-.997.156h-.717Zm1.926-2.452v-.706h1.064v.706h-1.064Zm-.1 0-2.15-5.78h.861l2.072 5.78h-.784Zm-5.902.145v-5.925h.672v2.476h-.067c0-.867.19-1.505.571-1.916.38-.418.978-.627 1.792-.627h.19v.762h-.347c-.642 0-1.13.168-1.467.504-.336.328-.504.814-.504 1.456v3.27h-.84Zm-2.905 0v-8.176h.84v8.176h-.84Zm-.862-7.493v-.683h1.702v.683h-1.702Zm-3.432 7.684c-.508 0-.948-.086-1.321-.258a2.65 2.65 0 0 1-.919-.706 3.147 3.147 0 0 1-.537-.996 3.843 3.843 0 0 1-.168-1.132v-.156a3.8 3.8 0 0 1 .168-1.12 3.02 3.02 0 0 1 .537-.986c.24-.291.538-.523.896-.694.366-.18.792-.27 1.277-.27.62 0 1.135.139 1.546.415.418.276.731.631.94 1.064.21.426.314.885.314 1.378v.437H38.48v-.65h4.716l-.213.325c0-.44-.079-.825-.235-1.154a1.727 1.727 0 0 0-.672-.784c-.292-.194-.657-.291-1.098-.291-.463 0-.848.108-1.154.325a2.029 2.029 0 0 0-.694.862 3.15 3.15 0 0 0-.224 1.221c0 .448.075.859.224 1.232.157.366.392.657.706.874.32.216.724.324 1.21.324.514 0 .932-.115 1.254-.347.32-.239.519-.519.593-.84h.784c-.075.396-.231.74-.47 1.03a2.4 2.4 0 0 1-.907.661 3.158 3.158 0 0 1-1.255.236Zm-15.261.478c-.508 0-.949-.085-1.322-.257a2.65 2.65 0 0 1-.918-.705 3.147 3.147 0 0 1-.538-.997 3.843 3.843 0 0 1-.168-1.131v-.157c0-.38.056-.754.168-1.12.12-.366.299-.694.538-.986.238-.29.537-.522.895-.694.366-.18.792-.269 1.277-.269.62 0 1.135.138 1.546.415.418.276.732.63.94 1.064.21.425.314.884.314 1.377v.437H23.22v-.65h4.715l-.213.325c0-.44-.078-.825-.235-1.154a1.727 1.727 0 0 0-.672-.784c-.291-.194-.657-.29-1.098-.29-.463 0-.847.108-1.153.324a2.029 2.029 0 0 0-.695.863 3.15 3.15 0 0 0-.224 1.22c0 .448.075.859.224 1.232.157.366.392.657.706.874.321.216.724.325 1.21.325.515 0 .933-.116 1.254-.348.321-.238.519-.518.593-.84h.785c-.075.396-.232.74-.47 1.03a2.4 2.4 0 0 1-.908.662 3.158 3.158 0 0 1-1.255.235Zm-6.918 2.084v-.75h.672c.29 0 .511-.086.66-.258.157-.164.236-.403.236-.717v-6.473h.806v6.316c0 .463-.063.833-.19 1.11a1.11 1.11 0 0 1-.583.593c-.268.12-.627.18-1.075.18h-.526Zm.605-7.526v-.672h1.77v.672h-1.77Zm1.12-1.87c-.202 0-.355-.053-.46-.158a.61.61 0 0 1-.145-.414.57.57 0 0 1 .145-.403c.105-.112.258-.168.46-.168.201 0 .35.056.447.168a.569.569 0 0 1 .146.403.61.61 0 0 1-.146.414c-.096.105-.246.157-.448.157Zm54.144-2.23c-.508 0-.948-.086-1.322-.257a2.65 2.65 0 0 1-.918-.706 3.143 3.143 0 0 1-.537-.997 3.843 3.843 0 0 1-.168-1.13V8.16c0-.38.056-.754.168-1.12.119-.366.298-.694.537-.985.24-.292.538-.523.896-.695.366-.179.792-.269 1.277-.269.62 0 1.135.139 1.545.415.419.276.732.63.941 1.064.21.425.314.885.314 1.377v.437H72.17v-.65h4.715l-.212.325c0-.44-.079-.825-.235-1.153a1.728 1.728 0 0 0-.672-.784c-.292-.194-.657-.291-1.098-.291-.463 0-.848.108-1.154.324a2.029 2.029 0 0 0-.694.863c-.15.358-.224.765-.224 1.22 0 .449.075.86.224 1.233.157.366.392.657.706.873.32.217.724.325 1.21.325.514 0 .932-.116 1.254-.347.32-.239.519-.519.593-.84h.784c-.075.396-.231.74-.47 1.03a2.4 2.4 0 0 1-.907.661 3.158 3.158 0 0 1-1.255.235Zm-7.589 0a2.93 2.93 0 0 1-1.187-.235 2.917 2.917 0 0 1-.919-.672 3.307 3.307 0 0 1-.593-.985 3.478 3.478 0 0 1-.202-1.188v-.156c0-.404.067-.788.202-1.154a3.1 3.1 0 0 1 .57-.986 2.738 2.738 0 0 1 2.106-.94c.5 0 .941.108 1.322.324.38.217.687.53.919.941.231.403.354.9.37 1.49l-.37-.695v-4.11h.84v8.176h-.672V8.586h.268c-.015.62-.145 1.142-.392 1.568a2.353 2.353 0 0 1-.952.94 2.72 2.72 0 0 1-1.31.314Zm.112-.739c.403 0 .765-.09 1.086-.269.329-.179.586-.433.773-.761.187-.336.28-.72.28-1.154v-.537c0-.419-.093-.784-.28-1.098a1.965 1.965 0 0 0-.773-.75 2.213 2.213 0 0 0-1.097-.27c-.44 0-.825.109-1.154.326-.32.209-.571.496-.75.862a2.865 2.865 0 0 0-.258 1.232c0 .47.09.888.269 1.254.18.366.433.654.761.863.329.201.71.302 1.143.302Zm-5.2.549v-1.78h-.135V7.331c0-.441-.116-.777-.347-1.008-.231-.24-.59-.359-1.075-.359a17.155 17.155 0 0 0-1.333.045 9.41 9.41 0 0 0-.538.034v-.74l.504-.044c.172-.015.348-.023.527-.023.186-.007.366-.011.537-.011.605 0 1.09.075 1.456.224.374.15.646.384.818.706.172.313.258.731.258 1.254v3.808h-.672Zm-2.005.157c-.418 0-.788-.075-1.109-.224a1.726 1.726 0 0 1-.75-.65c-.172-.284-.258-.627-.258-1.03 0-.396.09-.732.269-1.008.187-.277.452-.486.795-.627.351-.15.773-.224 1.266-.224h1.736v.638H60.21c-.47 0-.833.116-1.087.347-.246.224-.37.52-.37.885 0 .373.131.672.393.896.261.216.616.325 1.064.325.276 0 .541-.049.795-.146a1.46 1.46 0 0 0 .638-.515c.172-.246.265-.582.28-1.008l.247.347c-.03.44-.135.81-.314 1.109-.18.291-.422.511-.728.66-.306.15-.664.225-1.075.225Zm-12.263-.157V5.282h.672V7.78h-.135c0-.546.075-1.016.224-1.412.157-.395.388-.702.695-.918.306-.224.694-.336 1.164-.336h.034c.47 0 .859.108 1.165.325.306.216.534.522.683.918.15.396.224.87.224 1.423h-.269c0-.546.075-1.016.224-1.412.157-.395.388-.702.695-.918.313-.224.705-.336 1.176-.336h.033c.47 0 .859.108 1.165.325.314.216.545.522.694.918.157.396.236.87.236 1.423v3.438h-.84V7.589c0-.523-.127-.937-.381-1.243-.254-.306-.62-.46-1.098-.46-.493 0-.885.161-1.176.482-.284.314-.425.74-.425 1.277v3.573h-.84V7.589c0-.523-.127-.937-.381-1.243-.254-.306-.62-.46-1.098-.46-.493 0-.885.161-1.176.482-.284.314-.425.74-.425 1.277v3.573h-.84Zm-5.114.19a2.93 2.93 0 0 1-1.188-.235 2.917 2.917 0 0 1-.918-.672 3.307 3.307 0 0 1-.593-.985 3.478 3.478 0 0 1-.202-1.188v-.156c0-.404.067-.788.202-1.154.134-.373.324-.702.57-.986a2.738 2.738 0 0 1 2.106-.94c.5 0 .941.108 1.322.324.38.217.687.53.918.941.232.403.355.9.37 1.49l-.37-.695v-4.11h.84v8.176h-.672V8.586h.27c-.016.62-.147 1.142-.393 1.568a2.353 2.353 0 0 1-.952.94 2.72 2.72 0 0 1-1.31.314Zm.112-.739c.403 0 .765-.09 1.086-.269.329-.179.586-.433.773-.761.187-.336.28-.72.28-1.154v-.537c0-.419-.093-.784-.28-1.098a1.966 1.966 0 0 0-.773-.75 2.214 2.214 0 0 0-1.098-.27 2.043 2.043 0 0 0-1.903 1.188 2.865 2.865 0 0 0-.258 1.232c0 .47.09.888.269 1.254.179.366.433.654.761.863.329.201.71.302 1.143.302Zm-9.54.549V5.293h.672V7.78h-.134c0-.553.082-1.027.246-1.423.164-.396.41-.702.74-.918.328-.217.742-.325 1.242-.325h.034c.747 0 1.303.235 1.669.706.366.462.549 1.116.549 1.96v3.438h-.83V7.6c0-.515-.141-.93-.425-1.243-.284-.313-.68-.47-1.187-.47-.523 0-.944.164-1.266.493-.313.32-.47.746-.47 1.276v3.562h-.84Zm-2.658 0v-1.78h-.134V7.331c0-.441-.116-.777-.348-1.008-.231-.24-.59-.359-1.075-.359a21.21 21.21 0 0 0-1.333.045 9.41 9.41 0 0 0-.537.034v-.74c.164-.015.332-.03.504-.044.171-.015.347-.023.526-.023.187-.007.366-.011.538-.011.604 0 1.09.075 1.456.224.373.15.645.384.817.706.172.313.258.731.258 1.254v3.808h-.672Zm-2.005.157c-.418 0-.788-.075-1.109-.224a1.725 1.725 0 0 1-.75-.65c-.172-.284-.258-.627-.258-1.03 0-.396.09-.732.27-1.008.186-.277.45-.486.794-.627.351-.15.773-.224 1.266-.224h1.736v.638h-1.792c-.47 0-.833.116-1.087.347-.246.224-.37.52-.37.885 0 .373.131.672.393.896.261.216.616.325 1.064.325.276 0 .541-.049.795-.146.254-.104.467-.276.639-.515.171-.246.265-.582.28-1.008l.246.347c-.03.44-.135.81-.314 1.109a1.725 1.725 0 0 1-.728.66c-.306.15-.664.225-1.075.225Zm-8.599-.157V3.042h.84v4.626l-.246.19c0-.553.078-1.034.235-1.445.164-.41.407-.728.728-.952.329-.231.74-.347 1.232-.347h.045c.717 0 1.258.235 1.624.706.373.47.56 1.123.56 1.96v3.438h-.829V7.6c0-.53-.146-.948-.437-1.254-.29-.306-.683-.46-1.176-.46-.53 0-.952.172-1.265.516-.314.336-.47.78-.47 1.333v3.483h-.84Zm11.662 8.887 1.175-5.325h1.092l1.362 5.325h-.676l-1.362-5.293h.25l-1.186 5.293h-.655Zm-.448 0v-.634h.947v.634H31.2Zm-.187 0-1.591-5.501h.749l1.57 5.501h-.728Zm3.765 0v-.634h.925v.634h-.925Zm.406 0 1.372-5.501h.718l-1.404 5.501h-.686Z"/>
</svg>
