<svg xmlns="http://www.w3.org/2000/svg" aria-hidden="true" style="position:absolute;width:0;height:0;overflow:hidden">
  <defs>
    <symbol id="icon-favicon" viewBox="0 0 21 32">
      <path
        d="m19.429 7.579.017.014.947.788.001 14.603a854 854 0 0 1-10.103 8.214c-.215-.021-5.796-4.611-8.63-6.943l-.079-.065a335 335 0 0 0-1.458-1.196L.114 8.388 10.207.118c.329.047 6.63 5.298 9.222 7.459zm-4.359 2.984-.011-.018-.002-.003-.016-.025c-1.659-2.684-4.564-7.385-4.813-7.563l-5.856 9.331.013 6.478 1.178 1.932a75 75 0 0 1 1.557.242c1.058.171 2.124.343 3.175.43l1.402-.21c1.082-.164 2.165-.327 3.249-.472l1.181-1.835-.001-6.583c-.141-.221-.535-.858-1.056-1.703zm1.494 2.486c.412.515.766 1.147 1.109 1.759q.148.265.295.521.073.127.147.249l-.197.321-.204.332q-.267.432-.538.863l-.623 1.011q-.002-.73-.009-1.461c-.01-1.199-.02-2.4.02-3.595M11.892 1.944c-.484-.425-1.079-.947-1.435-1.099l.011.479q.015.564.021 1.129a1029 1029 0 0 0 5.627 8.978c0-.092-.004-.235-.009-.411v-.029c-.023-.84-.063-2.369.151-2.594l.018-.017.016-.013.016-.013.189.083c.146.664.111 1.7.079 2.623l-.001.013-.002.056c-.013.385-.024.747-.021 1.052q.375.624.759 1.243c.443.719.887 1.438 1.299 2.173l-2.055 3.299.005 2.114v1.628l3.407.002-.007-14.051a409 409 0 0 0-7.566-6.213l-.079-.064-.072-.061c-.106-.09-.225-.195-.353-.307zM9.966.872l.049.042c.098.292.071.744.047 1.134a8 8 0 0 0-.018.395L4.36 11.514q.003-.21.011-.442l.005-.141.011-.275c.029-.685.06-1.422-.016-1.998-.021-.162-.07-.22-.195-.314l-.131.025c-.199.309-.142 2.222-.111 3.264l.009.322.005.232a243 243 0 0 0-2.019 3.361l2.023 3.318-.008 1.897-.007 1.878-3.397-.005.013-14.039c2.024-1.746 4.111-3.43 6.196-5.113A457 457 0 0 0 9.966.872M7.785 21.458c-.639-.114-1.278-.228-1.913-.279l.491.789c1.31 2.102 2.623 4.21 3.876 6.344a296 296 0 0 0 1.886-3.084q.421-.681.839-1.364c.552-.902 1.105-1.804 1.676-2.693-.356.05-.779.123-1.23.201-1.118.193-2.404.415-3.245.392-.79-.022-1.585-.164-2.381-.305zm-3.422-.507.962.139c.645 1.07 1.301 2.133 1.957 3.197l.003.005.018.029c.92 1.491 1.839 2.982 2.729 4.492q-.001.352.002.706.005.505.015 1.011l-1.918-1.57-7.24-5.906c.812.011 1.626.009 2.439.006l1.029-.002c.019-.701.006-1.404.005-2.106zm11.525.032-.036.003-.666.102-4.711 7.666-.018 1.768.912-.74q.572-.462 1.147-.92a453 453 0 0 0 7.093-5.81l-3.478.004q.004-.234.015-.482l.001-.014c.021-.513.044-1.055-.059-1.523-.091-.069-.103-.067-.174-.059l-.027.003zM3.952 17.895l-.001.158-.503-.822a24 24 0 0 0-.691-1.162l-.315-.513c.294-.552.617-1.091.939-1.63l.247-.412.242-.411c.169.256.118 2.904.093 4.257-.004.217-.008.401-.009.536zm11.718 2.623.087-.156c.154-.276.308-.552.507-.797.018.253-.001.598-.046.806-.25.092-.351.124-.548.148zm-11.282-.867c.237.292.41.628.594.953-.068-.008-.099-.011-.129-.016-.058-.011-.113-.034-.419-.131-.046-.294-.064-.552-.046-.806" />
      <path
        d="m15.07 10.562-.672-1.088.661 1.07zm1.045.87c0-.095-.004-.245-.009-.43v.009c.005.18.009.327.009.42zm-11.741-.461a22 22 0 0 0-.015.543q.003-.21.011-.442zm-.426 1.217c-.001-.117-.007-.312-.014-.554l.009.322zm12.186 10.771.014-.398-.001.014q-.009.196-.013.383zM3.868 13.101l-.292.496.05-.084.242-.411zm.082 4.951c0-.166.008-.538.017-1.008l-.006.315c-.006.32-.011.567-.011.694z" />
    </symbol>
    <symbol id="icon-burger-menu" viewBox="0 0 32 32">
      <path d="M5.333 8h21.333v2.667H5.333zm0 6.667h21.333v2.667H5.333zm0 6.666h21.333V24H5.333z" />
    </symbol>
    <symbol id="icon-close-btn" viewBox="0 0 32 32">
      <path
        d="m21.589 8.459-5.657 5.656-5.656-5.656-1.885 1.885L14.047 16l-5.656 5.656 1.885 1.885 5.656-5.656 5.657 5.656 1.885-1.885L17.818 16l5.656-5.656z" />
    </symbol>
    <symbol id="icon-star-black" viewBox="0 0 32 32">
      <path
        d="M14.513 1.037a1.584 1.584 0 0 1 2.973 0l3.246 8.164c.232.583.756.982 1.358 1.032l8.426.707c1.427.12 2.006 1.983.919 2.958l-6.419 5.752a1.73 1.73 0 0 0-.519 1.67l1.961 8.6c.332 1.457-1.183 2.609-2.405 1.828l-7.213-4.609a1.55 1.55 0 0 0-1.679 0l-7.214 4.609c-1.222.781-2.738-.371-2.405-1.828l1.961-8.6a1.73 1.73 0 0 0-.519-1.67l-6.42-5.752c-1.088-.975-.509-2.838.919-2.958l8.426-.707a1.62 1.62 0 0 0 1.358-1.032z" />
    </symbol>
    <symbol id="icon-star-outline" viewBox="0 0 32 32">
      <path stroke-width="2.667"
        d="M16 1.333q.076.001.131.038c.031.02.078.062.116.159l3.246 8.164a2.95 2.95 0 0 0 2.486 1.867l8.426.707a.2.2 0 0 1 .135.053.37.37 0 0 1 .105.172c.052.168.008.314-.1.411l-6.419 5.751a3.07 3.07 0 0 0-.93 2.96l1.962 8.6c.043.187-.028.32-.128.396a.26.26 0 0 1-.13.055c-.024.002-.065-.001-.13-.043l-7.213-4.608a2.88 2.88 0 0 0-3.115 0l-7.213 4.608c-.066.042-.106.045-.13.043a.25.25 0 0 1-.13-.055c-.1-.076-.17-.209-.128-.396l1.962-8.6a3.07 3.07 0 0 0-.93-2.96l-6.419-5.751c-.108-.097-.152-.244-.1-.411a.4.4 0 0 1 .105-.172.22.22 0 0 1 .135-.053l8.426-.707a2.95 2.95 0 0 0 2.486-1.867l3.246-8.164a.3.3 0 0 1 .116-.159.24.24 0 0 1 .131-.038z" />
    </symbol>
    <symbol id="icon-email" viewBox="0 0 32 32">
      <path
        d="M26.667 5.333H5.334A2.67 2.67 0 0 0 2.667 8v16a2.67 2.67 0 0 0 2.667 2.667h21.333A2.67 2.67 0 0 0 29.334 24V8a2.67 2.67 0 0 0-2.667-2.667m0 2.667v.681L16 16.978 5.333 8.682v-.683h21.333zM5.333 24V12.059l9.848 7.66a1.33 1.33 0 0 0 1.638 0l9.848-7.66L26.67 24z" />
    </symbol>
    <symbol id="icon-phone" viewBox="0 0 32 32">
      <path
        d="M23.61 16.391a1.34 1.34 0 0 0-.942-.391 1.33 1.33 0 0 0-.942.391l-2.125 2.125c-.985-.293-2.824-.96-3.989-2.125s-1.832-3.004-2.125-3.989l2.125-2.125a1.34 1.34 0 0 0 .391-.942 1.33 1.33 0 0 0-.391-.942L10.279 3.06a1.34 1.34 0 0 0-.942-.391 1.33 1.33 0 0 0-.942.391L4.779 6.676a2.66 2.66 0 0 0-.781 1.913c.031 1.899.533 8.493 5.731 13.691s11.792 5.699 13.692 5.731h.037c.704 0 1.369-.277 1.873-.781l3.616-3.616a1.34 1.34 0 0 0 .391-.942 1.33 1.33 0 0 0-.391-.942l-5.333-5.335zm-.17 8.949c-1.664-.028-7.357-.475-11.831-4.949C7.121 15.903 6.686 10.19 6.66 8.559l2.673-2.673 3.448 3.448-1.724 1.724a1.33 1.33 0 0 0-.362 1.216c.032.153.815 3.789 3.028 6.003s5.849 2.996 6.003 3.028a1.32 1.32 0 0 0 1.216-.361l1.725-1.724 3.448 3.448-2.675 2.673z" />
    </symbol>
    <symbol id="icon-map" viewBox="0 0 32 32">
      <path
        d="M16 18.667c2.941 0 5.333-2.392 5.333-5.333S18.941 8.001 16 8.001s-5.333 2.392-5.333 5.333 2.392 5.333 5.333 5.333m0-8c1.471 0 2.667 1.196 2.667 2.667S17.471 16.001 16 16.001s-2.667-1.196-2.667-2.667 1.196-2.667 2.667-2.667" />
      <path
        d="M15.227 29.085a1.33 1.33 0 0 0 1.546 0c.405-.287 9.932-7.165 9.893-15.752 0-5.881-4.785-10.667-10.667-10.667S5.332 7.451 5.332 13.326c-.039 8.593 9.488 15.472 9.893 15.759zM16 5.333c4.412 0 8 3.588 8 8.007.028 5.917-5.851 11.231-8 12.973-2.148-1.744-8.028-7.059-8-12.98 0-4.412 3.588-8 8-8" />
    </symbol>
    <symbol id="icon-facebook" viewBox="0 0 32 32">
      <path
        d="M29.333 16.405C29.333 8.996 23.364 2.99 16 2.99S2.667 8.996 2.667 16.405c0 6.696 4.876 12.245 11.25 13.252v-9.374h-3.385v-3.878h3.385V13.45c0-3.362 1.991-5.219 5.036-5.219 1.459 0 2.985.262 2.985.262v3.301h-1.681c-1.656 0-2.173 1.034-2.173 2.095v2.516h3.698l-.591 3.878h-3.107v9.374c6.374-1.006 11.25-6.556 11.25-13.252z" />
    </symbol>
    <symbol id="icon-instagram" viewBox="0 0 32 32">
      <path
        d="M15.998 6.161c3.206 0 3.585.014 4.846.071 1.172.052 1.804.248 2.226.412.558.216.961.478 1.378.895.422.422.679.82.9 1.378.164.422.361 1.059.412 2.226.056 1.266.071 1.645.071 4.847s-.014 3.585-.071 4.847c-.052 1.172-.248 1.804-.412 2.227a3.7 3.7 0 0 1-.895 1.377c-.422.422-.82.679-1.378.9-.422.164-1.06.361-2.226.412-1.266.056-1.645.071-4.847.071s-3.585-.014-4.847-.071c-1.172-.052-1.804-.248-2.226-.412a3.7 3.7 0 0 1-1.378-.895 3.8 3.8 0 0 1-.9-1.378c-.164-.422-.361-1.06-.412-2.226-.056-1.266-.071-1.645-.071-4.847s.014-3.585.071-4.847c.052-1.172.248-1.804.412-2.226.216-.558.478-.961.895-1.378.422-.422.82-.679 1.378-.9.422-.164 1.059-.361 2.226-.412 1.261-.056 1.641-.071 4.847-.071zm0-2.16c-3.258 0-3.665.014-4.945.071-1.275.056-2.151.262-2.91.558a5.85 5.85 0 0 0-2.127 1.387A5.9 5.9 0 0 0 4.629 8.14c-.295.764-.502 1.636-.558 2.91C4.015 12.335 4 12.742 4 15.999s.014 3.665.071 4.945c.056 1.275.262 2.151.558 2.91a5.9 5.9 0 0 0 1.387 2.127 5.9 5.9 0 0 0 2.123 1.383c.764.295 1.636.502 2.91.558 1.279.056 1.687.071 4.945.071s3.666-.014 4.945-.071c1.275-.056 2.151-.262 2.91-.558.787-.305 1.458-.717 2.123-1.383s1.078-1.336 1.383-2.123c.295-.764.502-1.635.558-2.91.056-1.279.071-1.687.071-4.945s-.014-3.665-.071-4.945c-.056-1.275-.262-2.151-.558-2.91a5.6 5.6 0 0 0-1.373-2.133 5.9 5.9 0 0 0-2.123-1.383c-.764-.295-1.635-.502-2.91-.558-1.284-.061-1.692-.075-4.949-.075L15.999 4z" />
      <path
        d="M15.998 9.836a6.164 6.164 0 1 0 6.163 6.163 6.164 6.164 0 0 0-6.163-6.163m0 10.161a3.998 3.998 0 1 1 0-7.996 3.998 3.998 0 0 1 0 7.996m7.845-10.405a1.439 1.439 0 1 1-2.877 0 1.439 1.439 0 0 1 2.877 0" />
    </symbol>
    <symbol id="icon-x" viewBox="0 0 32 32">
      <path
        d="M22.901 5.657h3.68l-8.04 9.037L28 26.991h-7.406l-5.801-7.458-6.637 7.458H4.474l8.6-9.666L4 5.657h7.594l5.243 6.817zM21.61 24.824h2.039L10.486 7.709H8.298z" />
    </symbol>
    <symbol id="icon-linkedIn" viewBox="0 0 32 32">
      <path
        d="M25.75 4H6.25A2.257 2.257 0 0 0 4 6.25v19.5A2.257 2.257 0 0 0 6.25 28h19.5A2.257 2.257 0 0 0 28 25.75V6.25A2.257 2.257 0 0 0 25.75 4M13 23.5h-3V13h3zm-1.5-12a1.5 1.5 0 1 1-.001-2.999A1.5 1.5 0 0 1 11.5 11.5m12 12h-3v-6a1.5 1.5 0 1 0-3 0v6h-3V13h3v1.861c.619-.848 1.565-1.861 2.625-1.861 1.866 0 3.375 1.679 3.375 3.75z" />
    </symbol>
    <symbol id="icon-youtube" viewBox="0 0 32 32">
      <path
        d="M28.791 9.604a3.35 3.35 0 0 0-2.35-2.354C24.353 6.677 16 6.667 16 6.667s-8.352-.009-10.441.539a3.42 3.42 0 0 0-2.354 2.371c-.551 2.088-.556 6.419-.556 6.419s-.005 4.352.541 6.419a3.34 3.34 0 0 0 2.351 2.353c2.109.573 10.44.583 10.44.583s8.353.009 10.441-.537a3.36 3.36 0 0 0 2.356-2.35c.552-2.087.556-6.416.556-6.416s.027-4.353-.543-6.441zM13.328 20.007l.007-8 6.943 4.007z" />
    </symbol>
  </defs>
</svg>