<svg width="18" height="28" viewBox="0 0 18 28" fill="none" xmlns="http://www.w3.org/2000/svg">
<path fill-rule="evenodd" clip-rule="evenodd" d="M17.0001 6.63167L17.0154 6.64437L17.1701 6.77313L17.2943 6.87678L17.8441 7.33419L17.8452 20.112C14.9166 22.5302 11.9696 24.9263 9.00498 27.2996C8.81685 27.2809 3.93383 23.2649 1.45335 21.2247L1.38407 21.1678C0.74836 20.645 0.281096 20.2607 0.1083 20.1212L0.0996094 7.34117L8.93085 0.105225C9.21867 0.145995 14.7318 4.74079 17.0001 6.63167ZM13.1866 9.24224L13.1766 9.22625L13.1751 9.22338L13.1613 9.20119C11.7099 6.85279 9.16755 2.73945 8.95002 2.58335L3.82571 10.7481L3.83721 16.4161L4.8676 18.1068C5.31876 18.1711 5.77375 18.2446 6.23028 18.3183C7.15637 18.468 8.0886 18.6186 9.00805 18.695L9.56401 18.6121L10.2345 18.5109C11.1815 18.3677 12.1288 18.2245 13.0777 18.0976L14.1114 16.4922L14.1109 10.732C13.9877 10.5387 13.6431 9.98107 13.1866 9.24224ZM14.4938 11.4177C14.8545 11.8684 15.1643 12.4212 15.4644 12.9567C15.551 13.111 15.6367 13.2638 15.7225 13.4123C15.7652 13.4862 15.8079 13.559 15.8509 13.6304L15.6788 13.9113L15.5002 14.2017C15.3442 14.4538 15.1875 14.7054 15.0296 14.9564L14.4841 15.8414C14.4836 15.4159 14.48 14.9896 14.4764 14.563C14.4677 13.514 14.4593 12.463 14.4938 11.4177ZM10.4052 1.70114C9.98143 1.32889 9.46151 0.872453 9.14966 0.739437L9.15911 1.1589C9.16678 1.48831 9.17445 1.81778 9.17726 2.14711C10.805 4.77402 12.4463 7.39258 14.1012 10.0026C14.1009 9.92234 14.0973 9.79674 14.093 9.64271V9.63484V9.62671V9.62249V9.61722C14.0733 8.8818 14.0375 7.54443 14.2251 7.34734C14.23 7.34196 14.2354 7.33702 14.2413 7.33226L14.2553 7.32082L14.2694 7.30938L14.4348 7.38172C14.5623 7.96284 14.5316 8.8694 14.5043 9.67708L14.5038 9.68887L14.5022 9.73822C14.4912 10.0747 14.481 10.3919 14.4841 10.6586C14.7016 11.0226 14.9248 11.3845 15.1482 11.7465C15.5362 12.3754 15.9245 13.0049 16.2844 13.6475L14.4866 16.5341L14.491 18.3842V19.8087L17.4725 19.8103L17.4661 7.51563C15.2808 5.67714 13.0741 3.86484 10.8457 2.07921L10.7769 2.02293L10.7138 1.96978C10.6212 1.89098 10.5167 1.79896 10.4052 1.70114ZM8.72048 0.76273L8.76317 0.799331C8.84931 1.05514 8.82528 1.45001 8.80458 1.79195C8.79691 1.91744 8.78975 2.0358 8.78847 2.13754L3.81497 10.0747C3.81625 9.95201 3.81983 9.82241 3.82469 9.68831L3.82929 9.56526L3.83926 9.32486C3.86456 8.72504 3.89166 8.08078 3.82494 7.5764C3.80628 7.43508 3.76411 7.38404 3.6547 7.30133L3.53968 7.32312C3.36586 7.59353 3.4157 9.26722 3.4428 10.1791L3.45072 10.4611C3.45302 10.5437 3.45456 10.6126 3.45507 10.6641C2.85821 11.6397 2.26952 12.6201 1.68851 13.6051L3.45865 16.5079L3.45123 18.1679L3.44535 19.8109L0.472807 19.8065L0.484054 7.52218C2.25495 5.99459 4.08107 4.52061 5.90565 3.04799C6.84708 2.28827 7.788 1.5289 8.72048 0.76273ZM6.81231 18.7761C6.25303 18.6764 5.69425 18.5768 5.13829 18.5317L5.56824 19.222C6.71441 21.0615 7.8634 22.906 8.95948 24.7733C9.51519 23.8769 10.0655 22.9773 10.6095 22.0745C10.8556 21.6776 11.0997 21.2792 11.3439 20.8808C11.8272 20.0915 12.3111 19.302 12.8108 18.5242C12.4995 18.5683 12.1291 18.6321 11.7349 18.7002C10.7567 18.869 9.63124 19.0632 8.89558 19.0432C8.20465 19.0243 7.50835 18.9001 6.81231 18.7761ZM3.81778 18.3322L4.65978 18.4539C5.22418 19.3901 5.79829 20.3205 6.3724 21.251L6.3747 21.2551L6.39004 21.2801C7.19471 22.5848 7.99939 23.8897 8.77774 25.2106C8.77723 25.4164 8.77774 25.6222 8.77953 25.828C8.78183 26.1231 8.78617 26.4181 8.79282 26.713L7.11445 25.3393L0.779034 20.1715C1.4899 20.1814 2.20153 20.1792 2.91291 20.1771C3.21326 20.1762 3.5136 20.1752 3.81369 20.1752C3.83031 19.5616 3.81906 18.9464 3.81778 18.3322ZM13.9023 18.3601L13.8709 18.3631L13.2881 18.4528L9.16627 25.1609L9.15017 26.7082C9.41575 26.4917 9.68159 26.2759 9.9482 26.0608C10.2818 25.7914 10.6164 25.523 10.9515 25.2555C13.0373 23.5817 15.1063 21.8874 17.1583 20.172L14.1152 20.1752C14.117 20.0394 14.1226 19.8977 14.1285 19.7532L14.1293 19.7407C14.148 19.292 14.1676 18.8173 14.0779 18.4085C13.9979 18.3484 13.9877 18.3497 13.9261 18.3572L13.9023 18.3601ZM3.45762 15.6581L3.45635 15.796L3.01592 15.0764C2.82881 14.7325 2.61972 14.3952 2.41139 14.0594C2.3186 13.9097 2.22607 13.7602 2.13558 13.6106C2.39273 13.128 2.67519 12.6559 2.95738 12.1846L3.17312 11.8237C3.24418 11.7039 3.31499 11.584 3.38477 11.4639C3.53226 11.6883 3.4883 14.005 3.4658 15.1889C3.46222 15.379 3.45916 15.5398 3.45762 15.6581ZM13.7111 17.9532L13.7875 17.8168C13.922 17.5757 14.0572 17.3336 14.2315 17.119C14.2471 17.3407 14.2308 17.6425 14.1909 17.824C13.9723 17.9042 13.8836 17.9326 13.7111 17.9532ZM3.83977 17.1947C4.04707 17.45 4.19865 17.7441 4.35994 18.029C4.30064 18.0219 4.27355 18.0197 4.24696 18.0146C4.19635 18.0049 4.14778 17.9846 3.88015 17.8998C3.83977 17.6425 3.82392 17.4164 3.83977 17.1947Z" fill="black"/>
<path d="M13.1766 9.22625L13.1866 9.24225C13.6431 9.98107 13.9877 10.5387 14.1109 10.732L14.1114 16.4922L13.0777 18.0976C12.1288 18.2245 11.1815 18.3677 10.2345 18.5109L9.56401 18.6121L9.00805 18.695C8.0886 18.6186 7.15637 18.468 6.23028 18.3183C5.77375 18.2446 5.31876 18.1711 4.8676 18.1068L3.83721 16.4161L3.82571 10.7481L8.95002 2.58335M13.1766 9.22625L13.1751 9.22338L13.1613 9.20119C11.7099 6.85279 9.16755 2.73945 8.95002 2.58335M13.1766 9.22625C12.8142 8.63954 12.3819 7.94011 11.9343 7.21878C10.5934 5.05828 9.11362 2.7008 8.95002 2.58335M14.1012 10.0026C12.4463 7.39258 10.805 4.77402 9.17726 2.14711C9.17445 1.81778 9.16678 1.48831 9.15911 1.1589L9.14966 0.739437C9.46151 0.872453 9.98143 1.32889 10.4052 1.70114C10.5167 1.79896 10.6212 1.89098 10.7138 1.96978L10.7769 2.02293L10.8457 2.07921C13.0741 3.86484 15.2808 5.67714 17.4661 7.51563L17.4725 19.8103L14.491 19.8087V18.3842L14.4866 16.5341L16.2844 13.6475C15.9245 13.0049 15.5362 12.3754 15.1482 11.7465C14.9248 11.3845 14.7016 11.0226 14.4841 10.6586M14.1012 10.0026C14.1009 9.92234 14.0973 9.79674 14.093 9.64271M14.1012 10.0026C14.1012 10.0014 14.1012 10.0001 14.1012 9.99882C14.1012 9.91839 14.0973 9.79433 14.093 9.64271M14.093 9.64271V9.63484V9.62671V9.62249V9.61722C14.0733 8.8818 14.0375 7.54443 14.2251 7.34734C14.23 7.34196 14.2354 7.33702 14.2413 7.33226L14.2553 7.32082L14.2694 7.30938L14.4348 7.38172C14.5623 7.96284 14.5316 8.8694 14.5043 9.67708M14.5043 9.67708L14.5038 9.68887L14.5022 9.73822C14.4912 10.0747 14.481 10.3919 14.4841 10.6586M14.5043 9.67708C14.5025 9.72975 14.501 9.78282 14.4992 9.83454C14.4895 10.1351 14.4813 10.4175 14.4841 10.6586M4.24696 18.0146C4.27355 18.0197 4.30064 18.0219 4.35994 18.029C4.19865 17.7441 4.04707 17.45 3.83977 17.1947C3.82392 17.4164 3.83977 17.6425 3.88015 17.8998M4.24696 18.0146C4.19635 18.0049 4.14778 17.9846 3.88015 17.8998M4.24696 18.0146C4.19686 18.005 4.14983 17.9853 3.89012 17.9029C3.8868 17.9019 3.88348 17.9008 3.88015 17.8998M17.0001 6.63167L17.0154 6.64437L17.1701 6.77313L17.2943 6.87678L17.8441 7.33419L17.8452 20.112C14.9166 22.5302 11.9696 24.9263 9.00498 27.2996C8.81685 27.2809 3.93383 23.2649 1.45335 21.2247L1.38407 21.1678C0.74836 20.645 0.281096 20.2607 0.1083 20.1212L0.0996094 7.34117L8.93085 0.105225C9.21867 0.145995 14.7318 4.74079 17.0001 6.63167ZM14.4938 11.4177C14.8545 11.8684 15.1643 12.4212 15.4644 12.9567C15.551 13.111 15.6367 13.2638 15.7225 13.4123C15.7652 13.4862 15.8079 13.559 15.8509 13.6304L15.6788 13.9113L15.5002 14.2017C15.3442 14.4538 15.1875 14.7054 15.0296 14.9564L14.4841 15.8414C14.4836 15.4159 14.48 14.9896 14.4764 14.563C14.4677 13.514 14.4593 12.463 14.4938 11.4177ZM8.72048 0.76273L8.76317 0.799331C8.84931 1.05514 8.82528 1.45001 8.80458 1.79195C8.79691 1.91744 8.78975 2.0358 8.78847 2.13754L3.81497 10.0747C3.81625 9.95201 3.81983 9.82241 3.82469 9.68831L3.82929 9.56526L3.83926 9.32486C3.86456 8.72504 3.89166 8.08078 3.82494 7.5764C3.80628 7.43508 3.76411 7.38404 3.6547 7.30133L3.53968 7.32312C3.36586 7.59353 3.4157 9.26722 3.4428 10.1791L3.45072 10.4611C3.45302 10.5437 3.45456 10.6126 3.45507 10.6641C2.85821 11.6397 2.26952 12.6201 1.68851 13.6051L3.45865 16.5079L3.45123 18.1679L3.44535 19.8109L0.472807 19.8065L0.484054 7.52218C2.25495 5.99459 4.08107 4.52061 5.90565 3.04799C6.84708 2.28827 7.788 1.5289 8.72048 0.76273ZM6.81231 18.7761C6.25303 18.6764 5.69425 18.5768 5.13829 18.5317L5.56824 19.222C6.71441 21.0615 7.8634 22.906 8.95948 24.7733C9.51519 23.8769 10.0655 22.9773 10.6095 22.0745C10.8556 21.6776 11.0997 21.2792 11.3439 20.8808C11.8272 20.0915 12.3111 19.302 12.8108 18.5242C12.4995 18.5683 12.1291 18.6321 11.7349 18.7002C10.7567 18.869 9.63124 19.0632 8.89558 19.0432C8.20465 19.0243 7.50835 18.9001 6.81231 18.7761ZM3.81778 18.3322L4.65978 18.4539C5.22418 19.3901 5.79829 20.3205 6.3724 21.251L6.3747 21.2551L6.39004 21.2801C7.19471 22.5848 7.99939 23.8897 8.77774 25.2106C8.77723 25.4164 8.77774 25.6222 8.77953 25.828C8.78183 26.1231 8.78617 26.4181 8.79282 26.713L7.11445 25.3393L0.779034 20.1715C1.4899 20.1814 2.20153 20.1792 2.91291 20.1771C3.21326 20.1762 3.5136 20.1752 3.81369 20.1752C3.83031 19.5616 3.81906 18.9464 3.81778 18.3322ZM13.9023 18.3601L13.8709 18.3631L13.2881 18.4528L9.16627 25.1609L9.15017 26.7082C9.41575 26.4917 9.68159 26.2759 9.9482 26.0608C10.2818 25.7914 10.6164 25.523 10.9515 25.2555C13.0373 23.5817 15.1063 21.8874 17.1583 20.172L14.1152 20.1752C14.117 20.0394 14.1226 19.8977 14.1285 19.7532L14.1293 19.7407C14.148 19.292 14.1676 18.8173 14.0779 18.4085C13.9979 18.3484 13.9877 18.3497 13.9261 18.3572L13.9023 18.3601ZM3.45762 15.6581L3.45634 15.796L3.01592 15.0764C2.82881 14.7325 2.61972 14.3952 2.41139 14.0594C2.3186 13.9097 2.22607 13.7602 2.13558 13.6106C2.39273 13.128 2.67519 12.6559 2.95738 12.1846L3.17312 11.8237C3.24418 11.7039 3.31499 11.584 3.38477 11.4639C3.53226 11.6883 3.4883 14.005 3.4658 15.1889C3.46222 15.379 3.45916 15.5398 3.45762 15.6581ZM13.7111 17.9532L13.7875 17.8168C13.922 17.5757 14.0572 17.3336 14.2315 17.119C14.2471 17.3407 14.2308 17.6425 14.1909 17.824C13.9723 17.9042 13.8836 17.9326 13.7111 17.9532Z" stroke="black" stroke-width="0.2"/>
<path fill-rule="evenodd" clip-rule="evenodd" d="M13.1861 9.24213C13.0051 8.94948 12.8067 8.62841 12.5977 8.29028C12.8029 8.62225 12.9979 8.93782 13.1761 9.22614L13.1861 9.24213Z" fill="black" stroke="black" stroke-width="0.2"/>
<path fill-rule="evenodd" clip-rule="evenodd" d="M14.101 10.0026C14.1007 9.91958 14.0971 9.78802 14.0928 9.62671V9.63484C14.0971 9.79244 14.1007 9.92099 14.101 10.0026Z" fill="black"/>
<path d="M14.0928 9.63484V9.62671C14.0971 9.78802 14.1007 9.91958 14.101 10.0026C14.1007 9.92099 14.0971 9.79244 14.0928 9.63484ZM14.0928 9.63484V9.64272C14.0971 9.79433 14.101 9.91833 14.101 9.99876" stroke="black" stroke-width="0.2"/>
<path fill-rule="evenodd" clip-rule="evenodd" d="M3.82759 9.59985C3.8212 9.76548 3.81609 9.92519 3.81456 10.0747C3.81584 9.952 3.81941 9.8224 3.82427 9.6883C3.82529 9.65928 3.82657 9.62925 3.82759 9.59985ZM3.45465 10.6641C3.45389 10.5617 3.44877 10.3909 3.44238 10.179L3.45031 10.4611C3.45261 10.5437 3.45414 10.6126 3.45465 10.6641Z" fill="black" stroke="black" stroke-width="0.2"/>
<path fill-rule="evenodd" clip-rule="evenodd" d="M14.1172 20.0887C14.12 19.9756 14.1249 19.8591 14.1297 19.7407L14.1289 19.7532C14.1243 19.8677 14.1197 19.9793 14.1172 20.0887Z" fill="black"/>
<path d="M14.1289 19.7532L14.1297 19.7407C14.1249 19.8591 14.12 19.9756 14.1172 20.0887C14.1197 19.9793 14.1243 19.8677 14.1289 19.7532ZM14.1289 19.7532C14.1259 19.827 14.1228 19.8996 14.1205 19.9715C14.1192 20.008 14.1182 20.0446 14.1174 20.0804" stroke="black" stroke-width="0.2"/>
<path fill-rule="evenodd" clip-rule="evenodd" d="M3.38452 11.4637C3.30042 11.6086 3.21505 11.753 3.12891 11.8973L3.17287 11.8236C3.24393 11.7038 3.31474 11.5839 3.38452 11.4637ZM3.45609 15.7958C3.45609 15.651 3.46299 15.3251 3.47066 14.9135C3.46887 15.0105 3.46708 15.1026 3.46555 15.1888C3.46018 15.4686 3.45609 15.6851 3.45609 15.7958Z" fill="black" stroke="black" stroke-width="0.2"/>
</svg>
